<svg version="1.1" width="4096" height="512" xmlns="http://www.w3.org/2000/svg">
<polyline
fill="none"
stroke="#000000"
stroke-width="2"
points="4032,448 64,448 64,64"/>
<text x="0" y="10" font-family="Verdana" font-size="12" fill="black">mean =260.061</text>
<text x="0" y="20" font-family="Verdana" font-size="12" fill="black">std dev =52.7098</text>
<text x="0" y="64" font-family="Verdana" font-size="12" fill="black">388</text>
<text x="0" y="448" font-family="Verdana" font-size="12" fill="black">75</text>
<text x="64" y="480" font-family="Verdana" font-size="12" fill="black">0</text>
<text x="4032" y="480" font-family="Verdana" font-size="12" fill="black">60</text>
<polyline
fill="none"
stroke="#0000aa"
stroke-width="2"
points="64,348.626
65.1022,359.668
66.2044,325.316
67.3067,341.265
68.4089,348.626
69.5111,352.307
70.6133,363.348
71.7156,355.987
72.8178,363.348
73.92,363.348
75.0222,359.668
76.1244,359.668
77.2267,355.987
78.3289,355.987
79.4311,359.668
80.5333,355.987
81.6356,359.668
82.7378,352.307
83.84,352.307
84.9422,355.987
86.0444,348.626
87.1467,352.307
88.2489,341.265
89.3511,313.048
90.4533,332.677
91.5556,341.265
92.6578,348.626
93.76,344.946
94.8622,348.626
95.9644,348.626
97.0667,344.946
98.1689,352.307
99.2711,344.946
100.373,344.946
101.476,332.677
102.578,337.585
103.68,332.677
104.782,337.585
105.884,341.265
106.987,337.585
108.089,344.946
109.191,344.946
110.293,328.997
111.396,317.955
112.498,313.048
113.6,321.636
114.702,317.955
115.804,325.316
116.907,321.636
118.009,332.677
119.111,337.585
120.213,337.585
121.316,332.677
122.418,337.585
123.52,337.585
124.622,328.997
125.724,332.677
126.827,341.265
127.929,328.997
129.031,341.265
130.133,337.585
131.236,337.585
132.338,337.585
133.44,337.585
134.542,341.265
135.644,341.265
136.747,348.626
137.849,341.265
138.951,348.626
140.053,341.265
141.156,344.946
142.258,332.677
143.36,309.367
144.462,325.316
145.564,332.677
146.667,337.585
147.769,337.585
148.871,337.585
149.973,317.955
151.076,321.636
152.178,332.677
153.28,309.367
154.382,321.636
155.484,325.316
156.587,328.997
157.689,328.997
158.791,309.367
159.893,325.316
160.996,328.997
162.098,328.997
163.2,321.636
164.302,321.636
165.404,332.677
166.507,337.585
167.609,332.677
168.711,337.585
169.813,332.677
170.916,337.585
172.018,328.997
173.12,321.636
174.222,337.585
175.324,337.585
176.427,341.265
177.529,325.316
178.631,337.585
179.733,337.585
180.836,341.265
181.938,341.265
183.04,337.585
184.142,321.636
185.244,309.367
186.347,328.997
187.449,341.265
188.551,313.048
189.653,328.997
190.756,332.677
191.858,344.946
192.96,344.946
194.062,348.626
195.164,348.626
196.267,348.626
197.369,337.585
198.471,348.626
199.573,328.997
200.676,341.265
201.778,344.946
202.88,352.307
203.982,352.307
205.084,337.585
206.187,344.946
207.289,305.687
208.391,325.316
209.493,325.316
210.596,290.965
211.698,317.955
212.8,325.316
213.902,337.585
215.004,341.265
216.107,344.946
217.209,337.585
218.311,321.636
219.413,328.997
220.516,332.677
221.618,341.265
222.72,332.677
223.822,313.048
224.924,317.955
226.027,321.636
227.129,325.316
228.231,332.677
229.333,332.677
230.436,337.585
231.538,337.585
232.64,341.265
233.742,313.048
234.844,309.367
235.947,317.955
237.049,325.316
238.151,332.677
239.253,328.997
240.356,328.997
241.458,328.997
242.56,332.677
243.662,337.585
244.764,332.677
245.867,328.997
246.969,337.585
248.071,332.677
249.173,313.048
250.276,321.636
251.378,317.955
252.48,321.636
253.582,332.677
254.684,328.997
255.787,325.316
256.889,328.997
257.991,332.677
259.093,328.997
260.196,332.677
261.298,294.645
262.4,313.048
263.502,325.316
264.604,332.677
265.707,328.997
266.809,337.585
267.911,332.677
269.013,337.585
270.116,325.316
271.218,332.677
272.32,337.585
273.422,337.585
274.524,332.677
275.627,325.316
276.729,325.316
277.831,325.316
278.933,302.006
280.036,309.367
281.138,325.316
282.24,328.997
283.342,332.677
284.444,328.997
285.547,328.997
286.649,325.316
287.751,313.048
288.853,321.636
289.956,321.636
291.058,328.997
292.16,325.316
293.262,325.316
294.364,332.677
295.467,337.585
296.569,332.677
297.671,325.316
298.773,332.677
299.876,337.585
300.978,328.997
302.08,332.677
303.182,328.997
304.284,325.316
305.387,332.677
306.489,332.677
307.591,332.677
308.693,337.585
309.796,332.677
310.898,325.316
312,298.326
313.102,321.636
314.204,325.316
315.307,325.316
316.409,325.316
317.511,328.997
318.613,328.997
319.716,328.997
320.818,332.677
321.92,332.677
323.022,332.677
324.124,337.585
325.227,321.636
326.329,321.636
327.431,325.316
328.533,325.316
329.636,328.997
330.738,328.997
331.84,332.677
332.942,325.316
334.044,337.585
335.147,332.677
336.249,337.585
337.351,337.585
338.453,332.677
339.556,283.604
340.658,234.53
341.76,234.53
342.862,234.53
343.964,234.53
345.067,234.53
346.169,239.438
347.271,234.53
348.373,239.438
349.476,239.438
350.578,234.53
351.68,243.118
352.782,234.53
353.884,234.53
354.987,234.53
356.089,234.53
357.191,234.53
358.293,234.53
359.396,246.799
360.498,251.706
361.6,243.118
362.702,234.53
363.804,234.53
364.907,243.118
366.009,243.118
367.111,234.53
368.213,251.706
369.316,302.006
370.418,332.677
371.52,352.307
372.622,348.626
373.724,341.265
374.827,321.636
375.929,317.955
377.031,333.904
378.133,330.224
379.236,337.585
380.338,341.265
381.44,348.626
382.542,344.946
383.644,313.048
384.747,313.048
385.849,297.099
386.951,321.636
388.053,251.706
389.156,217.355
390.258,217.355
391.36,217.355
392.462,217.355
393.564,217.355
394.667,217.355
395.769,217.355
396.871,217.355
397.973,217.355
399.076,217.355
400.178,217.355
401.28,217.355
402.382,217.355
403.484,217.355
404.587,222.262
405.689,217.355
406.791,222.262
407.893,217.355
408.996,222.262
410.098,225.942
411.2,217.355
412.302,217.355
413.404,217.355
414.507,217.355
415.609,217.355
416.711,259.067
417.813,309.367
418.916,325.316
420.018,325.316
421.12,341.265
422.222,337.585
423.324,333.904
424.427,341.265
425.529,341.265
426.631,348.626
427.733,348.626
428.836,344.946
429.938,344.946
431.04,348.626
432.142,352.307
433.244,337.585
434.347,337.585
435.449,222.262
436.551,217.355
437.653,217.355
438.756,222.262
439.858,222.262
440.96,222.262
442.062,222.262
443.164,217.355
444.267,217.355
445.369,217.355
446.471,217.355
447.573,217.355
448.676,222.262
449.778,217.355
450.88,217.355
451.982,217.355
453.084,217.355
454.187,217.355
455.289,222.262
456.391,222.262
457.493,217.355
458.596,225.942
459.698,222.262
460.8,225.942
461.902,222.262
463.004,225.942
464.107,222.262
465.209,225.942
466.311,230.85
467.413,234.53
468.516,230.85
469.618,222.262
470.72,225.942
471.822,225.942
472.924,225.942
474.027,238.211
475.129,234.53
476.231,217.355
477.333,222.262
478.436,230.85
479.538,217.355
480.64,230.85
481.742,222.262
482.844,225.942
483.947,446.773
485.049,225.942
486.151,234.53
487.253,225.942
488.356,230.85
489.458,225.942
490.56,230.85
491.662,230.85
492.764,276.243
493.867,309.367
494.969,333.904
496.071,352.307
497.173,359.668
498.276,359.668
499.378,325.316
500.48,332.677
501.582,344.946
502.684,352.307
503.787,352.307
504.889,355.987
505.991,341.265
507.093,348.626
508.196,344.946
509.298,359.668
510.4,337.585
511.502,337.585
512.604,352.307
513.707,363.348
514.809,365.802
515.911,369.482
517.013,373.163
518.116,369.482
519.218,365.802
520.32,365.802
521.422,369.482
522.524,373.163
523.627,369.482
524.729,369.482
525.831,365.802
526.933,365.802
528.036,365.802
529.138,359.668
530.24,255.387
531.342,255.387
532.444,244.345
533.547,244.345
534.649,244.345
535.751,249.252
536.853,249.252
537.956,238.211
539.058,238.211
540.16,249.252
541.262,249.252
542.364,255.387
543.467,249.252
544.569,271.335
545.671,282.377
546.773,260.294
547.876,271.335
548.978,260.294
550.08,260.294
551.182,238.211
552.284,244.345
553.387,249.252
554.489,249.252
555.591,227.169
556.693,249.252
557.796,244.345
558.898,244.345
560,244.345
561.102,238.211
562.204,244.345
563.307,233.304
564.409,249.252
565.511,249.252
566.613,238.211
567.716,216.128
568.818,233.304
569.92,238.211
571.022,227.169
572.124,255.387
573.227,233.304
574.329,249.252
575.431,244.345
576.533,244.345
577.636,238.211
578.738,205.086
579.84,238.211
580.942,238.211
582.044,227.169
583.147,227.169
584.249,227.169
585.351,238.211
586.453,221.035
587.556,244.345
588.658,233.304
589.76,238.211
590.862,244.345
591.964,233.304
593.067,249.252
594.169,244.345
595.271,260.294
596.373,233.304
597.476,216.128
598.578,216.128
599.68,227.169
600.782,227.169
601.884,227.169
602.987,233.304
604.089,238.211
605.191,216.128
606.293,244.345
607.396,233.304
608.498,233.304
609.6,233.304
610.702,221.035
611.804,227.169
612.907,227.169
614.009,233.304
615.111,209.994
616.213,238.211
617.316,238.211
618.418,233.304
619.52,238.211
620.622,244.345
621.724,221.035
622.827,221.035
623.929,238.211
625.031,249.252
626.133,238.211
627.236,238.211
628.338,159.693
629.44,159.693
630.542,152.332
631.644,175.642
632.747,189.137
633.849,162.147
634.951,183.003
636.053,183.003
637.156,183.003
638.258,189.137
639.36,169.508
640.462,162.147
641.564,183.003
642.667,175.642
643.769,175.642
644.871,183.003
645.973,156.013
647.076,175.642
648.178,156.013
649.28,175.642
650.382,162.147
651.484,162.147
652.587,189.137
653.689,175.642
654.791,175.642
655.893,183.003
656.996,175.642
658.098,175.642
659.2,135.157
660.302,169.508
661.404,183.003
662.507,162.147
663.609,175.642
664.711,169.508
665.813,183.003
666.916,189.137
668.018,162.147
669.12,148.652
670.222,175.642
671.324,175.642
672.427,175.642
673.529,169.508
674.631,169.508
675.733,162.147
676.836,162.147
677.938,156.013
679.04,156.013
680.142,169.508
681.244,183.003
682.347,169.508
683.449,175.642
684.551,162.147
685.653,189.137
686.756,169.508
687.858,156.013
688.96,175.642
690.062,169.508
691.164,162.147
692.267,175.642
693.369,169.508
694.471,183.003
695.573,183.003
696.676,175.642
697.778,183.003
698.88,183.003
699.982,175.642
701.084,175.642
702.187,175.642
703.289,175.642
704.391,169.508
705.493,148.652
706.596,148.652
707.698,189.137
708.8,169.508
709.902,169.508
711.004,175.642
712.107,156.013
713.209,189.137
714.311,169.508
715.413,189.137
716.516,175.642
717.618,169.508
718.72,162.147
719.822,183.003
720.924,169.508
722.027,169.508
723.129,162.147
724.231,175.642
725.333,196.498
726.436,315.502
727.538,348.626
728.64,352.307
729.742,344.946
730.844,328.997
731.947,337.585
733.049,348.626
734.151,348.626
735.253,352.307
736.356,352.307
737.458,352.307
738.56,355.987
739.662,341.265
740.764,332.677
741.867,337.585
742.969,344.946
744.071,359.668
745.173,359.668
746.276,363.348
747.378,348.626
748.48,359.668
749.582,359.668
750.684,365.802
751.787,363.348
752.889,363.348
753.991,344.946
755.093,348.626
756.196,352.307
757.298,359.668
758.4,363.348
759.502,363.348
760.604,359.668
761.707,359.668
762.809,363.348
763.911,359.668
765.013,363.348
766.116,359.668
767.218,355.987
768.32,355.987
769.422,363.348
770.524,355.987
771.627,355.987
772.729,355.987
773.831,355.987
774.933,363.348
776.036,355.987
777.138,363.348
778.24,359.668
779.342,363.348
780.444,363.348
781.547,365.802
782.649,363.348
783.751,359.668
784.853,363.348
785.956,352.307
787.058,359.668
788.16,359.668
789.262,363.348
790.364,363.348
791.467,355.987
792.569,229.623
793.671,167.054
794.773,173.188
795.876,131.476
796.978,186.684
798.08,173.188
799.182,167.054
800.284,167.054
801.387,173.188
802.489,152.332
803.591,152.332
804.693,173.188
805.796,167.054
806.898,167.054
808,159.693
809.102,159.693
810.204,173.188
811.307,167.054
812.409,152.332
813.511,180.55
814.613,125.342
815.716,159.693
816.818,167.054
817.92,159.693
819.022,159.693
820.124,159.693
821.227,167.054
822.329,152.332
823.431,159.693
824.533,167.054
825.636,159.693
826.738,152.332
827.84,159.693
828.942,167.054
830.044,131.476
831.147,173.188
832.249,167.054
833.351,159.693
834.453,167.054
835.556,173.188
836.658,180.55
837.76,146.198
838.862,186.684
839.964,159.693
841.067,159.693
842.169,159.693
843.271,173.188
844.373,159.693
845.476,146.198
846.578,167.054
847.68,146.198
848.782,173.188
849.884,180.55
850.987,152.332
852.089,173.188
853.191,159.693
854.293,138.837
855.396,152.332
856.498,159.693
857.6,146.198
858.702,167.054
859.804,167.054
860.907,159.693
862.009,159.693
863.111,167.054
864.213,152.332
865.316,110.62
866.418,159.693
867.52,146.198
868.622,138.837
869.724,152.332
870.827,159.693
871.929,146.198
873.031,167.054
874.133,167.054
875.236,131.476
876.338,167.054
877.44,167.054
878.542,167.054
879.644,146.198
880.747,146.198
881.849,146.198
882.951,146.198
884.053,146.198
885.156,152.332
886.258,117.981
887.36,167.054
888.462,173.188
889.564,152.332
890.667,146.198
891.769,167.054
892.871,167.054
893.973,146.198
895.076,173.188
896.178,152.332
897.28,159.693
898.382,146.198
899.484,159.693
900.587,159.693
901.689,159.693
902.791,146.198
903.893,146.198
904.996,146.198
906.098,159.693
907.2,173.188
908.302,146.198
909.404,159.693
910.507,138.837
911.609,152.332
912.711,159.693
913.813,138.837
914.916,159.693
916.018,159.693
917.12,146.198
918.222,167.054
919.324,159.693
920.427,146.198
921.529,159.693
922.631,125.342
923.733,138.837
924.836,159.693
925.938,152.332
927.04,152.332
928.142,146.198
929.244,146.198
930.347,159.693
931.449,173.188
932.551,138.837
933.653,103.259
934.756,167.054
935.858,173.188
936.96,167.054
938.062,167.054
939.164,152.332
940.267,131.476
941.369,167.054
942.471,167.054
943.573,173.188
944.676,167.054
945.778,167.054
946.88,167.054
947.982,159.693
949.084,180.55
950.187,180.55
951.289,186.684
952.391,173.188
953.493,173.188
954.596,167.054
955.698,167.054
956.8,186.684
957.902,173.188
959.004,186.684
960.107,167.054
961.209,186.684
962.311,167.054
963.413,146.198
964.516,173.188
965.618,186.684
966.72,173.188
967.822,180.55
968.924,173.188
970.027,167.054
971.129,173.188
972.231,167.054
973.333,180.55
974.436,173.188
975.538,173.188
976.64,159.693
977.742,180.55
978.844,152.332
979.947,180.55
981.049,180.55
982.151,159.693
983.253,186.684
984.356,173.188
985.458,180.55
986.56,167.054
987.662,180.55
988.764,159.693
989.867,152.332
990.969,167.054
992.071,146.198
993.173,167.054
994.276,167.054
995.378,159.693
996.48,167.054
997.582,117.981
998.684,167.054
999.787,186.684
1000.89,167.054
1001.99,180.55
1003.09,167.054
1004.2,167.054
1005.3,173.188
1006.4,159.693
1007.5,173.188
1008.6,159.693
1009.71,186.684
1010.81,152.332
1011.91,180.55
1013.01,173.188
1014.12,167.054
1015.22,159.693
1016.32,167.054
1017.42,173.188
1018.52,152.332
1019.63,173.188
1020.73,167.054
1021.83,159.693
1022.93,131.476
1024.04,167.054
1025.14,167.054
1026.24,173.188
1027.34,159.693
1028.44,180.55
1029.55,152.332
1030.65,167.054
1031.75,167.054
1032.85,152.332
1033.96,146.198
1035.06,159.693
1036.16,159.693
1037.26,152.332
1038.36,167.054
1039.47,159.693
1040.57,167.054
1041.67,152.332
1042.77,159.693
1043.88,180.55
1044.98,138.837
1046.08,167.054
1047.18,159.693
1048.28,186.684
1049.39,167.054
1050.49,180.55
1051.59,159.693
1052.69,186.684
1053.8,159.693
1054.9,173.188
1056,194.045
1057.1,257.84
1058.2,260.294
1059.31,255.387
1060.41,238.211
1061.51,255.387
1062.61,255.387
1063.72,266.428
1064.82,266.428
1065.92,271.335
1067.02,244.345
1068.12,233.304
1069.23,227.169
1070.33,255.387
1071.43,244.345
1072.53,255.387
1073.64,266.428
1074.74,271.335
1075.84,260.294
1076.94,266.428
1078.04,271.335
1079.15,271.335
1080.25,233.304
1081.35,249.252
1082.45,260.294
1083.56,260.294
1084.66,244.345
1085.76,249.252
1086.86,255.387
1087.96,255.387
1089.07,249.252
1090.17,187.911
1091.27,238.211
1092.37,238.211
1093.48,238.211
1094.58,249.252
1095.68,244.345
1096.78,244.345
1097.88,238.211
1098.99,227.169
1100.09,249.252
1101.19,255.387
1102.29,255.387
1103.4,249.252
1104.5,255.387
1105.6,244.345
1106.7,255.387
1107.8,238.211
1108.91,255.387
1110.01,249.252
1111.11,260.294
1112.21,255.387
1113.32,249.252
1114.42,249.252
1115.52,260.294
1116.62,249.252
1117.72,233.304
1118.83,233.304
1119.93,255.387
1121.03,260.294
1122.13,255.387
1123.24,249.252
1124.34,266.428
1125.44,249.252
1126.54,260.294
1127.64,255.387
1128.75,249.252
1129.85,249.252
1130.95,260.294
1132.05,255.387
1133.16,266.428
1134.26,249.252
1135.36,238.211
1136.46,227.169
1137.56,244.345
1138.67,255.387
1139.77,249.252
1140.87,255.387
1141.97,260.294
1143.08,260.294
1144.18,249.252
1145.28,255.387
1146.38,255.387
1147.48,260.294
1148.59,244.345
1149.69,255.387
1150.79,266.428
1151.89,249.252
1153,260.294
1154.1,255.387
1155.2,249.252
1156.3,255.387
1157.4,244.345
1158.51,249.252
1159.61,255.387
1160.71,255.387
1161.81,249.252
1162.92,266.428
1164.02,260.294
1165.12,271.335
1166.22,255.387
1167.32,271.335
1168.43,255.387
1169.53,260.294
1170.63,249.252
1171.73,260.294
1172.84,249.252
1173.94,238.211
1175.04,233.304
1176.14,255.387
1177.24,244.345
1178.35,260.294
1179.45,249.252
1180.55,244.345
1181.65,249.252
1182.76,244.345
1183.86,249.252
1184.96,238.211
1186.06,255.387
1187.16,238.211
1188.27,249.252
1189.37,244.345
1190.47,255.387
1191.57,238.211
1192.68,255.387
1193.78,255.387
1194.88,266.428
1195.98,221.035
1197.08,255.387
1198.19,249.252
1199.29,260.294
1200.39,249.252
1201.49,271.335
1202.6,260.294
1203.7,260.294
1204.8,260.294
1205.9,249.252
1207,255.387
1208.11,249.252
1209.21,255.387
1210.31,255.387
1211.41,216.128
1212.52,227.169
1213.62,249.252
1214.72,255.387
1215.82,249.252
1216.92,249.252
1218.03,244.345
1219.13,255.387
1220.23,255.387
1221.33,260.294
1222.44,249.252
1223.54,255.387
1224.64,249.252
1225.74,260.294
1226.84,266.428
1227.95,260.294
1229.05,260.294
1230.15,249.252
1231.25,244.345
1232.36,244.345
1233.46,255.387
1234.56,260.294
1235.66,260.294
1236.76,266.428
1237.87,249.252
1238.97,249.252
1240.07,238.211
1241.17,216.128
1242.28,244.345
1243.38,255.387
1244.48,227.169
1245.58,227.169
1246.68,233.304
1247.79,255.387
1248.89,249.252
1249.99,255.387
1251.09,227.169
1252.2,227.169
1253.3,244.345
1254.4,244.345
1255.5,244.345
1256.6,249.252
1257.71,244.345
1258.81,233.304
1259.91,227.169
1261.01,244.345
1262.12,238.211
1263.22,244.345
1264.32,244.345
1265.42,249.252
1266.52,249.252
1267.63,249.252
1268.73,221.035
1269.83,244.345
1270.93,238.211
1272.04,244.345
1273.14,249.252
1274.24,249.252
1275.34,255.387
1276.44,249.252
1277.55,209.994
1278.65,227.169
1279.75,249.252
1280.85,244.345
1281.96,238.211
1283.06,260.294
1284.16,233.304
1285.26,221.035
1286.36,233.304
1287.47,244.345
1288.57,271.335
1289.67,209.994
1290.77,249.252
1291.88,244.345
1292.98,255.387
1294.08,249.252
1295.18,266.428
1296.28,260.294
1297.39,244.345
1298.49,244.345
1299.59,266.428
1300.69,244.345
1301.8,260.294
1302.9,244.345
1304,260.294
1305.1,238.211
1306.2,238.211
1307.31,216.128
1308.41,238.211
1309.51,255.387
1310.61,266.428
1311.72,255.387
1312.82,255.387
1313.92,255.387
1315.02,233.304
1316.12,244.345
1317.23,266.428
1318.33,266.428
1319.43,271.335
1320.53,276.243
1321.64,238.211
1322.74,200.179
1323.84,167.054
1324.94,186.684
1326.04,167.054
1327.15,194.045
1328.25,186.684
1329.35,180.55
1330.45,186.684
1331.56,186.684
1332.66,146.198
1333.76,180.55
1334.86,186.684
1335.96,186.684
1337.07,186.684
1338.17,167.054
1339.27,186.684
1340.37,152.332
1341.48,159.693
1342.58,186.684
1343.68,167.054
1344.78,186.684
1345.88,167.054
1346.99,186.684
1348.09,173.188
1349.19,173.188
1350.29,180.55
1351.4,180.55
1352.5,186.684
1353.6,179.323
1354.7,186.684
1355.8,159.693
1356.91,159.693
1358.01,194.045
1359.11,186.684
1360.21,159.693
1361.32,180.55
1362.42,180.55
1363.52,173.188
1364.62,186.684
1365.72,167.054
1366.83,173.188
1367.93,152.332
1369.03,159.693
1370.13,180.55
1371.24,173.188
1372.34,152.332
1373.44,180.55
1374.54,173.188
1375.64,180.55
1376.75,167.054
1377.85,146.198
1378.95,180.55
1380.05,167.054
1381.16,173.188
1382.26,200.179
1383.36,186.684
1384.46,173.188
1385.56,186.684
1386.67,194.045
1387.77,146.198
1388.87,167.054
1389.97,173.188
1391.08,159.693
1392.18,131.476
1393.28,180.55
1394.38,173.188
1395.48,186.684
1396.59,186.684
1397.69,173.188
1398.79,159.693
1399.89,143.744
1401,125.342
1402.1,167.054
1403.2,180.55
1404.3,173.188
1405.4,186.684
1406.51,167.054
1407.61,159.693
1408.71,152.332
1409.81,180.55
1410.92,158.466
1412.02,173.188
1413.12,138.837
1414.22,167.054
1415.32,159.693
1416.43,167.054
1417.53,173.188
1418.63,165.827
1419.73,167.054
1420.84,173.188
1421.94,180.55
1423.04,173.188
1424.14,159.693
1425.24,167.054
1426.35,152.332
1427.45,95.8978
1428.55,173.188
1429.65,173.188
1430.76,167.054
1431.86,173.188
1432.96,173.188
1434.06,173.188
1435.16,146.198
1436.27,159.693
1437.37,194.045
1438.47,158.466
1439.57,167.054
1440.68,180.55
1441.78,167.054
1442.88,165.827
1443.98,158.466
1445.08,167.054
1446.19,180.55
1447.29,186.684
1448.39,180.55
1449.49,173.188
1450.6,173.188
1451.7,173.188
1452.8,158.466
1453.9,179.323
1455,173.188
1456.11,173.188
1457.21,186.684
1458.31,165.827
1459.41,151.105
1460.52,138.837
1461.62,180.55
1462.72,136.383
1463.82,159.693
1464.92,167.054
1466.03,167.054
1467.13,186.684
1468.23,180.55
1469.33,173.188
1470.44,143.744
1471.54,180.55
1472.64,159.693
1473.74,173.188
1474.84,186.684
1475.95,146.198
1477.05,167.054
1478.15,167.054
1479.25,186.684
1480.36,152.332
1481.46,194.045
1482.56,167.054
1483.66,173.188
1484.76,173.188
1485.87,194.045
1486.97,158.466
1488.07,151.105
1489.17,180.55
1490.28,180.55
1491.38,173.188
1492.48,194.045
1493.58,180.55
1494.68,186.684
1495.79,151.105
1496.89,186.684
1497.99,143.744
1499.09,165.827
1500.2,159.693
1501.3,186.684
1502.4,167.054
1503.5,158.466
1504.6,158.466
1505.71,167.054
1506.81,173.188
1507.91,186.684
1509.01,179.323
1510.12,173.188
1511.22,167.054
1512.32,180.55
1513.42,179.323
1514.52,158.466
1515.63,186.684
1516.73,180.55
1517.83,151.105
1518.93,179.323
1520.04,173.188
1521.14,143.744
1522.24,158.466
1523.34,179.323
1524.44,180.55
1525.55,167.054
1526.65,136.383
1527.75,165.827
1528.85,158.466
1529.96,158.466
1531.06,158.466
1532.16,180.55
1533.26,158.466
1534.36,173.188
1535.47,167.054
1536.57,159.693
1537.67,159.693
1538.77,136.383
1539.88,165.827
1540.98,159.693
1542.08,151.105
1543.18,158.466
1544.28,186.684
1545.39,158.466
1546.49,136.383
1547.59,165.827
1548.69,146.198
1549.8,165.827
1550.9,165.827
1552,186.684
1553.1,158.466
1554.2,167.054
1555.31,146.198
1556.41,158.466
1557.51,152.332
1558.61,159.693
1559.72,186.684
1560.82,136.383
1561.92,158.466
1563.02,173.188
1564.12,165.827
1565.23,151.105
1566.33,151.105
1567.43,158.466
1568.53,180.55
1569.64,151.105
1570.74,136.383
1571.84,173.188
1572.94,151.105
1574.04,194.045
1575.15,180.55
1576.25,186.684
1577.35,158.466
1578.45,165.827
1579.56,173.188
1580.66,173.188
1581.76,151.105
1582.86,151.105
1583.96,136.383
1585.07,173.188
1586.17,165.827
1587.27,208.767
1588.37,246.799
1589.48,257.84
1590.58,257.84
1591.68,223.489
1592.78,246.799
1593.88,246.799
1594.99,251.706
1596.09,240.665
1597.19,229.623
1598.29,240.665
1599.4,251.706
1600.5,268.882
1601.6,257.84
1602.7,262.748
1603.8,251.706
1604.91,268.882
1606.01,251.706
1607.11,234.53
1608.21,229.623
1609.32,251.706
1610.42,229.623
1611.52,251.706
1612.62,268.882
1613.72,257.84
1614.83,251.706
1615.93,251.706
1617.03,240.665
1618.13,246.799
1619.24,246.799
1620.34,229.623
1621.44,251.706
1622.54,234.53
1623.64,223.489
1624.75,257.84
1625.85,234.53
1626.95,268.882
1628.05,257.84
1629.16,217.355
1630.26,246.799
1631.36,262.748
1632.46,251.706
1633.56,229.623
1634.67,240.665
1635.77,234.53
1636.87,217.355
1637.97,246.799
1639.08,240.665
1640.18,251.706
1641.28,257.84
1642.38,251.706
1643.48,251.706
1644.59,257.84
1645.69,200.179
1646.79,234.53
1647.89,257.84
1649,246.799
1650.1,251.706
1651.2,257.84
1652.3,251.706
1653.4,223.489
1654.51,223.489
1655.61,246.799
1656.71,251.706
1657.81,257.84
1658.92,240.665
1660.02,234.53
1661.12,251.706
1662.22,240.665
1663.32,229.623
1664.43,262.748
1665.53,246.799
1666.63,240.665
1667.73,251.706
1668.84,246.799
1669.94,257.84
1671.04,257.84
1672.14,223.489
1673.24,234.53
1674.35,251.706
1675.45,251.706
1676.55,251.706
1677.65,246.799
1678.76,240.665
1679.86,240.665
1680.96,234.53
1682.06,251.706
1683.16,200.179
1684.27,240.665
1685.37,234.53
1686.47,240.665
1687.57,229.623
1688.68,246.799
1689.78,234.53
1690.88,246.799
1691.98,229.623
1693.08,246.799
1694.19,229.623
1695.29,234.53
1696.39,246.799
1697.49,234.53
1698.6,251.706
1699.7,262.748
1700.8,257.84
1701.9,246.799
1703,240.665
1704.11,229.623
1705.21,223.489
1706.31,229.623
1707.41,246.799
1708.52,240.665
1709.62,251.706
1710.72,240.665
1711.82,246.799
1712.92,251.706
1714.03,251.706
1715.13,257.84
1716.23,234.53
1717.33,217.355
1718.44,246.799
1719.54,251.706
1720.64,234.53
1721.74,251.706
1722.84,229.623
1723.95,257.84
1725.05,234.53
1726.15,246.799
1727.25,200.179
1728.36,234.53
1729.46,240.665
1730.56,246.799
1731.66,240.665
1732.76,246.799
1733.87,240.665
1734.97,229.623
1736.07,234.53
1737.17,240.665
1738.28,251.706
1739.38,251.706
1740.48,223.489
1741.58,240.665
1742.68,251.706
1743.79,251.706
1744.89,234.53
1745.99,246.799
1747.09,246.799
1748.2,234.53
1749.3,246.799
1750.4,229.623
1751.5,240.665
1752.6,240.665
1753.71,251.706
1754.81,223.489
1755.91,251.706
1757.01,240.665
1758.12,257.84
1759.22,262.748
1760.32,257.84
1761.42,257.84
1762.52,234.53
1763.63,211.22
1764.73,240.665
1765.83,234.53
1766.93,217.355
1768.04,200.179
1769.14,234.53
1770.24,234.53
1771.34,240.665
1772.44,246.799
1773.55,275.016
1774.65,205.086
1775.75,223.489
1776.85,205.086
1777.96,223.489
1779.06,217.355
1780.16,234.53
1781.26,240.665
1782.36,246.799
1783.47,257.84
1784.57,262.748
1785.67,240.665
1786.77,229.623
1787.88,217.355
1788.98,234.53
1790.08,234.53
1791.18,229.623
1792.28,234.53
1793.39,246.799
1794.49,251.706
1795.59,246.799
1796.69,246.799
1797.8,240.665
1798.9,223.489
1800,240.665
1801.1,229.623
1802.2,223.489
1803.31,251.706
1804.41,246.799
1805.51,251.706
1806.61,257.84
1807.72,257.84
1808.82,223.489
1809.92,240.665
1811.02,257.84
1812.12,251.706
1813.23,251.706
1814.33,257.84
1815.43,251.706
1816.53,234.53
1817.64,240.665
1818.74,251.706
1819.84,205.086
1820.94,234.53
1822.04,240.665
1823.15,240.665
1824.25,234.53
1825.35,240.665
1826.45,251.706
1827.56,257.84
1828.66,240.665
1829.76,262.748
1830.86,251.706
1831.96,246.799
1833.07,211.22
1834.17,246.799
1835.27,246.799
1836.37,262.748
1837.48,251.706
1838.58,223.489
1839.68,246.799
1840.78,251.706
1841.88,262.748
1842.99,257.84
1844.09,240.665
1845.19,251.706
1846.29,251.706
1847.4,257.84
1848.5,268.882
1849.6,262.748
1850.7,180.55
1851.8,143.744
1852.91,167.054
1854.01,181.776
1855.11,151.105
1856.21,174.415
1857.32,174.415
1858.42,136.383
1859.52,151.105
1860.62,174.415
1861.72,174.415
1862.83,167.054
1863.93,167.054
1865.03,167.054
1866.13,167.054
1867.24,167.054
1868.34,174.415
1869.44,158.466
1870.54,151.105
1871.64,158.466
1872.75,174.415
1873.85,151.105
1874.95,158.466
1876.05,158.466
1877.16,151.105
1878.26,167.054
1879.36,151.105
1880.46,167.054
1881.56,174.415
1882.67,158.466
1883.77,151.105
1884.87,158.466
1885.97,120.435
1887.08,136.383
1888.18,167.054
1889.28,151.105
1890.38,158.466
1891.48,143.744
1892.59,143.744
1893.69,151.105
1894.79,158.466
1895.89,158.466
1897,167.054
1898.1,136.383
1899.2,158.466
1900.3,174.415
1901.4,151.105
1902.51,158.466
1903.61,167.054
1904.71,136.383
1905.81,158.466
1906.92,174.415
1908.02,167.054
1909.12,136.383
1910.22,151.105
1911.32,151.105
1912.43,151.105
1913.53,158.466
1914.63,129.022
1915.73,174.415
1916.84,167.054
1917.94,136.383
1919.04,158.466
1920.14,167.054
1921.24,158.466
1922.35,151.105
1923.45,151.105
1924.55,136.383
1925.65,151.105
1926.76,136.383
1927.86,158.466
1928.96,174.415
1930.06,136.383
1931.16,151.105
1932.27,151.105
1933.37,158.466
1934.47,129.022
1935.57,151.105
1936.68,151.105
1937.78,158.466
1938.88,151.105
1939.98,151.105
1941.08,113.073
1942.19,158.466
1943.29,136.383
1944.39,158.466
1945.49,167.054
1946.6,129.022
1947.7,143.744
1948.8,158.466
1949.9,143.744
1951,129.022
1952.11,158.466
1953.21,151.105
1954.31,158.466
1955.41,151.105
1956.52,113.073
1957.62,158.466
1958.72,151.105
1959.82,167.054
1960.92,158.466
1962.03,143.744
1963.13,136.383
1964.23,129.022
1965.33,143.744
1966.44,151.105
1967.54,174.415
1968.64,167.054
1969.74,174.415
1970.84,136.383
1971.95,143.744
1973.05,151.105
1974.15,167.054
1975.25,174.415
1976.36,167.054
1977.46,151.105
1978.56,151.105
1979.66,167.054
1980.76,158.466
1981.87,151.105
1982.97,167.054
1984.07,151.105
1985.17,174.415
1986.28,143.744
1987.38,143.744
1988.48,151.105
1989.58,158.466
1990.68,174.415
1991.79,151.105
1992.89,151.105
1993.99,143.744
1995.09,174.415
1996.2,151.105
1997.3,151.105
1998.4,151.105
1999.5,174.415
2000.6,167.054
2001.71,167.054
2002.81,167.054
2003.91,158.466
2005.01,167.054
2006.12,143.744
2007.22,151.105
2008.32,167.054
2009.42,151.105
2010.52,151.105
2011.63,158.466
2012.73,158.466
2013.83,143.744
2014.93,174.415
2016.04,167.054
2017.14,151.105
2018.24,167.054
2019.34,167.054
2020.44,158.466
2021.55,174.415
2022.65,167.054
2023.75,143.744
2024.85,174.415
2025.96,181.776
2027.06,167.054
2028.16,158.466
2029.26,167.054
2030.36,181.776
2031.47,158.466
2032.57,174.415
2033.67,151.105
2034.77,151.105
2035.88,158.466
2036.98,157.24
2038.08,151.105
2039.18,158.466
2040.28,129.022
2041.39,143.744
2042.49,189.137
2043.59,174.415
2044.69,158.466
2045.8,158.466
2046.9,174.415
2048,151.105
2049.1,174.415
2050.2,158.466
2051.31,158.466
2052.41,158.466
2053.51,174.415
2054.61,181.776
2055.72,136.383
2056.82,143.744
2057.92,167.054
2059.02,143.744
2060.12,167.054
2061.23,158.466
2062.33,158.466
2063.43,158.466
2064.53,167.054
2065.64,174.415
2066.74,181.776
2067.84,167.054
2068.94,136.383
2070.04,158.466
2071.15,174.415
2072.25,174.415
2073.35,151.105
2074.45,143.744
2075.56,158.466
2076.66,167.054
2077.76,174.415
2078.86,174.415
2079.96,158.466
2081.07,167.054
2082.17,151.105
2083.27,158.466
2084.37,136.383
2085.48,151.105
2086.58,151.105
2087.68,151.105
2088.78,181.776
2089.88,167.054
2090.99,167.054
2092.09,151.105
2093.19,136.383
2094.29,151.105
2095.4,151.105
2096.5,151.105
2097.6,167.054
2098.7,174.415
2099.8,158.466
2100.91,158.466
2102.01,151.105
2103.11,167.054
2104.21,143.744
2105.32,151.105
2106.42,143.744
2107.52,158.466
2108.62,158.466
2109.72,158.466
2110.83,151.105
2111.93,174.415
2113.03,158.466
2114.13,158.466
2115.24,129.022
2116.34,167.054
2117.44,158.466
2118.54,174.415
2119.64,158.466
2120.75,167.054
2121.85,167.054
2122.95,158.466
2124.05,158.466
2125.16,167.054
2126.26,174.415
2127.36,158.466
2128.46,151.105
2129.56,174.415
2130.67,181.776
2131.77,174.415
2132.87,167.054
2133.97,143.744
2135.08,151.105
2136.18,167.054
2137.28,181.776
2138.38,158.466
2139.48,181.776
2140.59,151.105
2141.69,151.105
2142.79,174.415
2143.89,167.054
2145,151.105
2146.1,143.744
2147.2,158.466
2148.3,158.466
2149.4,158.466
2150.51,174.415
2151.61,151.105
2152.71,151.105
2153.81,181.776
2154.92,174.415
2156.02,143.744
2157.12,167.054
2158.22,181.776
2159.32,181.776
2160.43,151.105
2161.53,174.415
2162.63,143.744
2163.73,143.744
2164.84,167.054
2165.94,158.466
2167.04,151.105
2168.14,167.054
2169.24,181.776
2170.35,174.415
2171.45,158.466
2172.55,167.054
2173.65,167.054
2174.76,181.776
2175.86,151.105
2176.96,174.415
2178.06,143.744
2179.16,143.744
2180.27,174.415
2181.37,174.415
2182.47,158.466
2183.57,167.054
2184.68,151.105
2185.78,174.415
2186.88,189.137
2187.98,167.054
2189.08,151.105
2190.19,167.054
2191.29,174.415
2192.39,151.105
2193.49,158.466
2194.6,158.466
2195.7,181.776
2196.8,174.415
2197.9,158.466
2199,174.415
2200.11,143.744
2201.21,167.054
2202.31,181.776
2203.41,158.466
2204.52,143.744
2205.62,167.054
2206.72,143.744
2207.82,158.466
2208.92,181.776
2210.03,143.744
2211.13,158.466
2212.23,64
2213.33,167.054
2214.44,174.415
2215.54,136.383
2216.64,143.744
2217.74,143.744
2218.84,158.466
2219.95,151.105
2221.05,151.105
2222.15,158.466
2223.25,151.105
2224.36,181.776
2225.46,174.415
2226.56,174.415
2227.66,174.415
2228.76,158.466
2229.87,158.466
2230.97,158.466
2232.07,167.054
2233.17,158.466
2234.28,174.415
2235.38,181.776
2236.48,158.466
2237.58,151.105
2238.68,174.415
2239.79,181.776
2240.89,158.466
2241.99,167.054
2243.09,181.776
2244.2,167.054
2245.3,167.054
2246.4,181.776
2247.5,257.84
2248.6,266.428
2249.71,266.428
2250.81,260.294
2251.91,277.47
2253.01,272.562
2254.12,272.562
2255.22,286.058
2256.32,260.294
2257.42,266.428
2258.52,260.294
2259.63,260.294
2260.73,266.428
2261.83,266.428
2262.93,277.47
2264.04,272.562
2265.14,243.118
2266.24,243.118
2267.34,255.387
2268.44,243.118
2269.55,262.748
2270.65,272.562
2271.75,255.387
2272.85,249.252
2273.96,266.428
2275.06,272.562
2276.16,249.252
2277.26,266.428
2278.36,238.211
2279.47,243.118
2280.57,249.252
2281.67,255.387
2282.77,266.428
2283.88,243.118
2284.98,219.808
2286.08,255.387
2287.18,255.387
2288.28,255.387
2289.39,255.387
2290.49,255.387
2291.59,238.211
2292.69,213.674
2293.8,243.118
2294.9,260.294
2296,219.808
2297.1,238.211
2298.2,232.077
2299.31,249.252
2300.41,243.118
2301.51,255.387
2302.61,225.942
2303.72,213.674
2304.82,243.118
2305.92,255.387
2307.02,238.211
2308.12,260.294
2309.23,266.428
2310.33,255.387
2311.43,255.387
2312.53,272.562
2313.64,249.252
2314.74,255.387
2315.84,249.252
2316.94,207.54
2318.04,249.252
2319.15,266.428
2320.25,232.077
2321.35,249.252
2322.45,219.808
2323.56,225.942
2324.66,255.387
2325.76,272.562
2326.86,249.252
2327.96,243.118
2329.07,255.387
2330.17,255.387
2331.27,266.428
2332.37,255.387
2333.48,232.077
2334.58,238.211
2335.68,213.674
2336.78,238.211
2337.88,255.387
2338.99,255.387
2340.09,255.387
2341.19,249.252
2342.29,249.252
2343.4,260.294
2344.5,232.077
2345.6,238.211
2346.7,260.294
2347.8,260.294
2348.91,255.387
2350.01,260.294
2351.11,249.252
2352.21,249.252
2353.32,207.54
2354.42,257.84
2355.52,243.118
2356.62,260.294
2357.72,266.428
2358.83,225.942
2359.93,232.077
2361.03,238.211
2362.13,238.211
2363.24,260.294
2364.34,260.294
2365.44,225.942
2366.54,238.211
2367.64,243.118
2368.75,243.118
2369.85,260.294
2370.95,255.387
2372.05,249.252
2373.16,249.252
2374.26,201.406
2375.36,238.211
2376.46,238.211
2377.56,243.118
2378.67,249.252
2379.77,249.252
2380.87,249.252
2381.97,255.387
2383.08,243.118
2384.18,243.118
2385.28,238.211
2386.38,225.942
2387.48,249.252
2388.59,249.252
2389.69,243.118
2390.79,243.118
2391.89,255.387
2393,255.387
2394.1,255.387
2395.2,249.252
2396.3,260.294
2397.4,249.252
2398.51,234.53
2399.61,249.252
2400.71,249.252
2401.81,260.294
2402.92,249.252
2404.02,213.674
2405.12,243.118
2406.22,260.294
2407.32,243.118
2408.43,255.387
2409.53,243.118
2410.63,243.118
2411.73,255.387
2412.84,207.54
2413.94,243.118
2415.04,255.387
2416.14,255.387
2417.24,260.294
2418.35,260.294
2419.45,225.942
2420.55,238.211
2421.65,260.294
2422.76,249.252
2423.86,249.252
2424.96,266.428
2426.06,255.387
2427.16,249.252
2428.27,255.387
2429.37,238.211
2430.47,255.387
2431.57,266.428
2432.68,255.387
2433.78,249.252
2434.88,260.294
2435.98,260.294
2437.08,266.428
2438.19,260.294
2439.29,243.118
2440.39,249.252
2441.49,260.294
2442.6,266.428
2443.7,266.428
2444.8,272.562
2445.9,243.118
2447,266.428
2448.11,260.294
2449.21,255.387
2450.31,249.252
2451.41,243.118
2452.52,260.294
2453.62,238.211
2454.72,255.387
2455.82,255.387
2456.92,260.294
2458.03,260.294
2459.13,272.562
2460.23,277.47
2461.33,277.47
2462.44,260.294
2463.54,260.294
2464.64,277.47
2465.74,266.428
2466.84,255.387
2467.95,272.562
2469.05,260.294
2470.15,260.294
2471.25,277.47
2472.36,260.294
2473.46,260.294
2474.56,255.387
2475.66,232.077
2476.76,243.118
2477.87,249.252
2478.97,238.211
2480.07,255.387
2481.17,243.118
2482.28,255.387
2483.38,255.387
2484.48,275.016
2485.58,266.428
2486.68,255.387
2487.79,238.211
2488.89,255.387
2489.99,266.428
2491.09,260.294
2492.2,249.252
2493.3,266.428
2494.4,266.428
2495.5,266.428
2496.6,260.294
2497.71,260.294
2498.81,260.294
2499.91,255.387
2501.01,255.387
2502.12,260.294
2503.22,251.706
2504.32,255.387
2505.42,266.428
2506.52,260.294
2507.63,243.118
2508.73,249.252
2509.83,255.387
2510.93,206.313
2512.04,167.054
2513.14,120.435
2514.24,113.073
2515.34,120.435
2516.44,129.022
2517.55,136.383
2518.65,143.744
2519.75,151.105
2520.85,113.073
2521.96,136.383
2523.06,151.105
2524.16,151.105
2525.26,136.383
2526.36,136.383
2527.47,151.105
2528.57,129.022
2529.67,143.744
2530.77,136.383
2531.88,136.383
2532.98,151.105
2534.08,143.744
2535.18,158.466
2536.28,151.105
2537.39,129.022
2538.49,113.073
2539.59,143.744
2540.69,151.105
2541.8,143.744
2542.9,143.744
2544,151.105
2545.1,113.073
2546.2,158.466
2547.31,158.466
2548.41,129.022
2549.51,151.105
2550.61,158.466
2551.72,174.415
2552.82,158.466
2553.92,167.054
2555.02,143.744
2556.12,143.744
2557.23,129.022
2558.33,167.054
2559.43,151.105
2560.53,167.054
2561.64,174.415
2562.74,189.137
2563.84,151.105
2564.94,158.466
2566.04,181.776
2567.15,174.415
2568.25,151.105
2569.35,151.105
2570.45,174.415
2571.56,174.415
2572.66,174.415
2573.76,174.415
2574.86,151.105
2575.96,174.415
2577.07,174.415
2578.17,181.776
2579.27,158.466
2580.37,196.498
2581.48,167.054
2582.58,174.415
2583.68,151.105
2584.78,189.137
2585.88,167.054
2586.99,174.415
2588.09,174.415
2589.19,189.137
2590.29,174.415
2591.4,167.054
2592.5,167.054
2593.6,174.415
2594.7,181.776
2595.8,174.415
2596.91,181.776
2598.01,181.776
2599.11,151.105
2600.21,174.415
2601.32,181.776
2602.42,158.466
2603.52,181.776
2604.62,151.105
2605.72,174.415
2606.83,181.776
2607.93,151.105
2609.03,167.054
2610.13,174.415
2611.24,158.466
2612.34,181.776
2613.44,167.054
2614.54,158.466
2615.64,158.466
2616.75,174.415
2617.85,143.744
2618.95,167.054
2620.05,189.137
2621.16,181.776
2622.26,181.776
2623.36,174.415
2624.46,174.415
2625.56,189.137
2626.67,174.415
2627.77,174.415
2628.87,189.137
2629.97,189.137
2631.08,143.744
2632.18,158.466
2633.28,174.415
2634.38,167.054
2635.48,181.776
2636.59,181.776
2637.69,174.415
2638.79,167.054
2639.89,174.415
2641,167.054
2642.1,151.105
2643.2,167.054
2644.3,174.415
2645.4,151.105
2646.51,158.466
2647.61,151.105
2648.71,158.466
2649.81,158.466
2650.92,158.466
2652.02,181.776
2653.12,143.744
2654.22,143.744
2655.32,174.415
2656.43,167.054
2657.53,174.415
2658.63,174.415
2659.73,158.466
2660.84,158.466
2661.94,181.776
2663.04,174.415
2664.14,151.105
2665.24,158.466
2666.35,181.776
2667.45,136.383
2668.55,174.415
2669.65,167.054
2670.76,158.466
2671.86,167.054
2672.96,189.137
2674.06,167.054
2675.16,151.105
2676.27,167.054
2677.37,151.105
2678.47,181.776
2679.57,158.466
2680.68,181.776
2681.78,143.744
2682.88,167.054
2683.98,181.776
2685.08,158.466
2686.19,151.105
2687.29,174.415
2688.39,181.776
2689.49,167.054
2690.6,151.105
2691.7,167.054
2692.8,174.415
2693.9,174.415
2695,151.105
2696.11,151.105
2697.21,167.054
2698.31,174.415
2699.41,181.776
2700.52,174.415
2701.62,158.466
2702.72,158.466
2703.82,181.776
2704.92,196.498
2706.03,203.859
2707.13,174.415
2708.23,196.498
2709.33,196.498
2710.44,174.415
2711.54,167.054
2712.64,181.776
2713.74,174.415
2714.84,158.466
2715.95,167.054
2717.05,196.498
2718.15,196.498
2719.25,174.415
2720.36,181.776
2721.46,196.498
2722.56,181.776
2723.66,174.415
2724.76,151.105
2725.87,174.415
2726.97,189.137
2728.07,158.466
2729.17,196.498
2730.28,158.466
2731.38,174.415
2732.48,174.415
2733.58,158.466
2734.68,174.415
2735.79,174.415
2736.89,167.054
2737.99,174.415
2739.09,174.415
2740.2,167.054
2741.3,167.054
2742.4,167.054
2743.5,189.137
2744.6,167.054
2745.71,129.022
2746.81,158.466
2747.91,174.415
2749.01,167.054
2750.12,158.466
2751.22,174.415
2752.32,181.776
2753.42,181.776
2754.52,174.415
2755.63,260.294
2756.73,158.466
2757.83,167.054
2758.93,189.137
2760.04,151.105
2761.14,181.776
2762.24,151.105
2763.34,174.415
2764.44,167.054
2765.55,189.137
2766.65,181.776
2767.75,158.466
2768.85,158.466
2769.96,181.776
2771.06,181.776
2772.16,129.022
2773.26,174.415
2774.36,189.137
2775.47,167.054
2776.57,167.054
2777.67,167.054
2778.77,181.776
2779.88,143.744
2780.98,151.105
2782.08,158.466
2783.18,158.466
2784.28,158.466
2785.39,181.776
2786.49,151.105
2787.59,151.105
2788.69,129.022
2789.8,181.776
2790.9,167.054
2792,151.105
2793.1,167.054
2794.2,167.054
2795.31,167.054
2796.41,158.466
2797.51,167.054
2798.61,151.105
2799.72,151.105
2800.82,181.776
2801.92,158.466
2803.02,158.466
2804.12,143.744
2805.23,151.105
2806.33,174.415
2807.43,181.776
2808.53,167.054
2809.64,151.105
2810.74,196.498
2811.84,203.859
2812.94,196.498
2814.04,143.744
2815.15,151.105
2816.25,174.415
2817.35,181.776
2818.45,189.137
2819.56,143.744
2820.66,158.466
2821.76,181.776
2822.86,174.415
2823.96,181.776
2825.07,174.415
2826.17,174.415
2827.27,189.137
2828.37,181.776
2829.48,211.22
2830.58,189.137
2831.68,174.415
2832.78,181.776
2833.88,211.22
2834.99,189.137
2836.09,174.415
2837.19,196.498
2838.29,211.22
2839.4,196.498
2840.5,211.22
2841.6,196.498
2842.7,196.498
2843.8,189.137
2844.91,174.415
2846.01,189.137
2847.11,181.776
2848.21,143.744
2849.32,167.054
2850.42,158.466
2851.52,158.466
2852.62,174.415
2853.72,167.054
2854.83,151.105
2855.93,158.466
2857.03,158.466
2858.13,158.466
2859.24,167.054
2860.34,174.415
2861.44,158.466
2862.54,136.383
2863.64,167.054
2864.75,167.054
2865.85,143.744
2866.95,174.415
2868.05,174.415
2869.16,158.466
2870.26,158.466
2871.36,174.415
2872.46,174.415
2873.56,167.054
2874.67,143.744
2875.77,151.105
2876.87,174.415
2877.97,158.466
2879.08,174.415
2880.18,174.415
2881.28,174.415
2882.38,189.137
2883.48,189.137
2884.59,167.054
2885.69,181.776
2886.79,174.415
2887.89,181.776
2889,167.054
2890.1,167.054
2891.2,174.415
2892.3,158.466
2893.4,158.466
2894.51,167.054
2895.61,174.415
2896.71,174.415
2897.81,167.054
2898.92,167.054
2900.02,167.054
2901.12,151.105
2902.22,174.415
2903.32,174.415
2904.43,174.415
2905.53,181.776
2906.63,196.498
2907.73,196.498
2908.84,251.706
2909.94,283.604
2911.04,277.47
2912.14,283.604
2913.24,277.47
2914.35,266.428
2915.45,283.604
2916.55,266.428
2917.65,272.562
2918.76,272.562
2919.86,272.562
2920.96,272.562
2922.06,266.428
2923.16,225.942
2924.27,255.387
2925.37,266.428
2926.47,277.47
2927.57,277.47
2928.68,266.428
2929.78,266.428
2930.88,272.562
2931.98,272.562
2933.08,272.562
2934.19,272.562
2935.29,272.562
2936.39,260.294
2937.49,272.562
2938.6,272.562
2939.7,249.252
2940.8,277.47
2941.9,260.294
2943,266.428
2944.11,249.252
2945.21,255.387
2946.31,277.47
2947.41,255.387
2948.52,266.428
2949.62,272.562
2950.72,277.47
2951.82,255.387
2952.92,272.562
2954.03,249.252
2955.13,255.387
2956.23,266.428
2957.33,260.294
2958.44,277.47
2959.54,272.562
2960.64,243.118
2961.74,260.294
2962.84,260.294
2963.95,255.387
2965.05,260.294
2966.15,183.003
2967.25,255.387
2968.36,277.47
2969.46,266.428
2970.56,272.562
2971.66,266.428
2972.76,266.428
2973.87,272.562
2974.97,277.47
2976.07,272.562
2977.17,260.294
2978.28,266.428
2979.38,272.562
2980.48,225.942
2981.58,219.808
2982.68,260.294
2983.79,249.252
2984.89,243.118
2985.99,249.252
2987.09,260.294
2988.2,283.604
2989.3,255.387
2990.4,225.942
2991.5,266.428
2992.6,277.47
2993.71,272.562
2994.81,243.118
2995.91,238.211
2997.01,266.428
2998.12,266.428
2999.22,260.294
3000.32,266.428
3001.42,255.387
3002.52,260.294
3003.63,260.294
3004.73,225.942
3005.83,255.387
3006.93,272.562
3008.04,266.428
3009.14,272.562
3010.24,232.077
3011.34,243.118
3012.44,260.294
3013.55,266.428
3014.65,266.428
3015.75,266.428
3016.85,232.077
3017.96,255.387
3019.06,255.387
3020.16,266.428
3021.26,260.294
3022.36,260.294
3023.47,238.211
3024.57,260.294
3025.67,272.562
3026.77,266.428
3027.88,219.808
3028.98,238.211
3030.08,249.252
3031.18,266.428
3032.28,260.294
3033.39,255.387
3034.49,260.294
3035.59,272.562
3036.69,255.387
3037.8,272.562
3038.9,225.942
3040,243.118
3041.1,238.211
3042.2,266.428
3043.31,243.118
3044.41,225.942
3045.51,238.211
3046.61,243.118
3047.72,260.294
3048.82,266.428
3049.92,260.294
3051.02,255.387
3052.12,225.942
3053.23,249.252
3054.33,260.294
3055.43,249.252
3056.53,249.252
3057.64,255.387
3058.74,255.387
3059.84,243.118
3060.94,260.294
3062.04,266.428
3063.15,238.211
3064.25,238.211
3065.35,249.252
3066.45,249.252
3067.56,255.387
3068.66,260.294
3069.76,225.942
3070.86,249.252
3071.96,266.428
3073.07,243.118
3074.17,260.294
3075.27,260.294
3076.37,255.387
3077.48,225.942
3078.58,249.252
3079.68,249.252
3080.78,232.077
3081.88,255.387
3082.99,249.252
3084.09,219.808
3085.19,249.252
3086.29,249.252
3087.4,266.428
3088.5,238.211
3089.6,201.406
3090.7,243.118
3091.8,255.387
3092.91,260.294
3094.01,249.252
3095.11,255.387
3096.21,260.294
3097.32,266.428
3098.42,260.294
3099.52,266.428
3100.62,266.428
3101.72,255.387
3102.83,255.387
3103.93,266.428
3105.03,260.294
3106.13,255.387
3107.24,266.428
3108.34,249.252
3109.44,243.118
3110.54,266.428
3111.64,243.118
3112.75,260.294
3113.85,266.428
3114.95,266.428
3116.05,238.211
3117.16,260.294
3118.26,272.562
3119.36,277.47
3120.46,232.077
3121.56,266.428
3122.67,272.562
3123.77,195.272
3124.87,238.211
3125.97,249.252
3127.08,249.252
3128.18,272.562
3129.28,272.562
3130.38,255.387
3131.48,255.387
3132.59,260.294
3133.69,255.387
3134.79,249.252
3135.89,238.211
3137,238.211
3138.1,219.808
3139.2,255.387
3140.3,260.294
3141.4,255.387
3142.51,260.294
3143.61,277.47
3144.71,238.211
3145.81,249.252
3146.92,255.387
3148.02,255.387
3149.12,266.428
3150.22,260.294
3151.32,260.294
3152.43,277.47
3153.53,249.252
3154.63,260.294
3155.73,277.47
3156.84,272.562
3157.94,213.674
3159.04,249.252
3160.14,277.47
3161.24,277.47
3162.35,255.387
3163.45,255.387
3164.55,260.294
3165.65,249.252
3166.76,283.604
3167.86,272.562
3168.96,283.604
3170.06,272.562
3171.16,255.387
3172.27,266.428
3173.37,260.294
3174.47,197.725
3175.57,158.466
3176.68,136.383
3177.78,151.105
3178.88,174.415
3179.98,167.054
3181.08,196.498
3182.19,196.498
3183.29,181.776
3184.39,136.383
3185.49,181.776
3186.6,174.415
3187.7,158.466
3188.8,167.054
3189.9,136.383
3191,167.054
3192.11,174.415
3193.21,143.744
3194.31,151.105
3195.41,181.776
3196.52,158.466
3197.62,136.383
3198.72,167.054
3199.82,143.744
3200.92,167.054
3202.03,174.415
3203.13,174.415
3204.23,158.466
3205.33,158.466
3206.44,174.415
3207.54,174.415
3208.64,174.415
3209.74,174.415
3210.84,151.105
3211.95,167.054
3213.05,181.776
3214.15,174.415
3215.25,183.003
3216.36,158.466
3217.46,143.744
3218.56,174.415
3219.66,167.054
3220.76,167.054
3221.87,167.054
3222.97,189.137
3224.07,167.054
3225.17,174.415
3226.28,158.466
3227.38,181.776
3228.48,151.105
3229.58,158.466
3230.68,167.054
3231.79,151.105
3232.89,158.466
3233.99,174.415
3235.09,167.054
3236.2,167.054
3237.3,189.137
3238.4,167.054
3239.5,174.415
3240.6,181.776
3241.71,189.137
3242.81,158.466
3243.91,189.137
3245.01,196.498
3246.12,158.466
3247.22,167.054
3248.32,181.776
3249.42,181.776
3250.52,143.744
3251.63,167.054
3252.73,181.776
3253.83,167.054
3254.93,143.744
3256.04,174.415
3257.14,203.859
3258.24,174.415
3259.34,167.054
3260.44,140.064
3261.55,174.415
3262.65,203.859
3263.75,189.137
3264.85,174.415
3265.96,174.415
3267.06,189.137
3268.16,157.24
3269.26,157.24
3270.36,195.272
3271.47,157.24
3272.57,187.911
3273.67,187.911
3274.77,173.188
3275.88,165.827
3276.98,180.55
3278.08,165.827
3279.18,180.55
3280.28,180.55
3281.39,180.55
3282.49,157.24
3283.59,180.55
3284.69,165.827
3285.8,173.188
3286.9,173.188
3288,173.188
3289.1,165.827
3290.2,157.24
3291.31,149.879
3292.41,165.827
3293.51,157.24
3294.61,173.188
3295.72,173.188
3296.82,149.879
3297.92,157.24
3299.02,141.291
3300.12,165.827
3301.23,141.291
3302.33,141.291
3303.43,157.24
3304.53,157.24
3305.64,173.188
3306.74,141.291
3307.84,149.879
3308.94,173.188
3310.04,165.827
3311.15,149.879
3312.25,157.24
3313.35,165.827
3314.45,173.188
3315.56,149.879
3316.66,165.827
3317.76,180.55
3318.86,149.879
3319.96,149.879
3321.07,149.879
3322.17,157.24
3323.27,180.55
3324.37,180.55
3325.48,126.569
3326.58,173.188
3327.68,157.24
3328.78,133.93
3329.88,133.93
3330.99,173.188
3332.09,187.911
3333.19,157.24
3334.29,165.827
3335.4,165.827
3336.5,165.827
3337.6,173.188
3338.7,180.55
3339.8,180.55
3340.91,157.24
3342.01,173.188
3343.11,195.272
3344.21,149.879
3345.32,157.24
3346.42,173.188
3347.52,187.911
3348.62,173.188
3349.72,157.24
3350.83,165.827
3351.93,165.827
3353.03,180.55
3354.13,187.911
3355.24,157.24
3356.34,157.24
3357.44,165.827
3358.54,187.911
3359.64,173.188
3360.75,157.24
3361.85,165.827
3362.95,157.24
3364.05,165.827
3365.16,173.188
3366.26,187.911
3367.36,165.827
3368.46,157.24
3369.56,180.55
3370.67,165.827
3371.77,173.188
3372.87,165.827
3373.97,157.24
3375.08,173.188
3376.18,187.911
3377.28,173.188
3378.38,165.827
3379.48,149.879
3380.59,173.188
3381.69,165.827
3382.79,173.188
3383.89,173.188
3385,165.827
3386.1,149.879
3387.2,173.188
3388.3,165.827
3389.4,173.188
3390.51,173.188
3391.61,187.911
3392.71,180.55
3393.81,180.55
3394.92,195.272
3396.02,195.272
3397.12,187.911
3398.22,165.827
3399.32,173.188
3400.43,173.188
3401.53,165.827
3402.63,149.879
3403.73,165.827
3404.84,173.188
3405.94,180.55
3407.04,180.55
3408.14,173.188
3409.24,165.827
3410.35,165.827
3411.45,180.55
3412.55,157.24
3413.65,149.879
3414.76,157.24
3415.86,149.879
3416.96,180.55
3418.06,180.55
3419.16,165.827
3420.27,165.827
3421.37,173.188
3422.47,187.911
3423.57,157.24
3424.68,165.827
3425.78,165.827
3426.88,165.827
3427.98,187.911
3429.08,187.911
3430.19,195.272
3431.29,202.633
3432.39,180.55
3433.49,149.879
3434.6,165.827
3435.7,180.55
3436.8,195.272
3437.9,257.84
3439,270.109
3440.11,294.645
3441.21,282.377
3442.31,270.109
3443.41,259.067
3444.52,263.974
3445.62,282.377
3446.72,288.511
3447.82,229.623
3448.92,270.109
3450.03,277.47
3451.13,234.53
3452.23,240.665
3453.33,246.799
3454.44,259.067
3455.54,259.067
3456.64,211.22
3457.74,246.799
3458.84,246.799
3459.95,266.428
3461.05,259.067
3462.15,263.974
3463.25,246.799
3464.36,252.933
3465.46,229.623
3466.56,234.53
3467.66,259.067
3468.76,240.665
3469.87,246.799
3470.97,435.732
3472.07,229.623
3473.17,234.53
3474.28,229.623
3475.38,246.799
3476.48,240.665
3477.58,246.799
3478.68,246.799
3479.79,276.243
3480.89,259.067
3481.99,240.665
3483.09,259.067
3484.2,246.799
3485.3,270.109
3486.4,263.974
3487.5,229.623
3488.6,252.933
3489.71,246.799
3490.81,223.489
3491.91,249.252
3493.01,252.933
3494.12,252.933
3495.22,252.933
3496.32,252.933
3497.42,270.109
3498.52,246.799
3499.63,259.067
3500.73,240.665
3501.83,246.799
3502.93,252.933
3504.04,252.933
3505.14,240.665
3506.24,234.53
3507.34,229.623
3508.44,223.489
3509.55,249.252
3510.65,252.933
3511.75,259.067
3512.85,246.799
3513.96,240.665
3515.06,270.109
3516.16,252.933
3517.26,246.799
3518.36,252.933
3519.47,270.109
3520.57,277.47
3521.67,252.933
3522.77,263.974
3523.88,259.067
3524.98,259.067
3526.08,270.109
3527.18,277.47
3528.28,270.109
3529.39,263.974
3530.49,266.428
3531.59,259.067
3532.69,259.067
3533.8,263.974
3534.9,263.974
3536,259.067
3537.1,246.799
3538.2,252.933
3539.31,276.243
3540.41,259.067
3541.51,223.489
3542.61,240.665
3543.72,259.067
3544.82,263.974
3545.92,263.974
3547.02,223.489
3548.12,246.799
3549.23,270.109
3550.33,252.933
3551.43,234.53
3552.53,259.067
3553.64,252.933
3554.74,263.974
3555.84,276.243
3556.94,234.53
3558.04,234.53
3559.15,259.067
3560.25,263.974
3561.35,272.562
3562.45,252.933
3563.56,234.53
3564.66,252.933
3565.76,246.799
3566.86,246.799
3567.96,259.067
3569.07,259.067
3570.17,259.067
3571.27,252.933
3572.37,223.489
3573.48,252.933
3574.58,263.974
3575.68,270.109
3576.78,259.067
3577.88,252.933
3578.99,266.428
3580.09,240.665
3581.19,252.933
3582.29,263.974
3583.4,288.511
3584.5,234.53
3585.6,246.799
3586.7,246.799
3587.8,223.489
3588.91,272.562
3590.01,276.243
3591.11,270.109
3592.21,263.974
3593.32,263.974
3594.42,259.067
3595.52,276.243
3596.62,276.243
3597.72,282.377
3598.83,282.377
3599.93,293.419
3601.03,252.933
3602.13,252.933
3603.24,282.377
3604.34,234.53
3605.44,260.294
3606.54,270.109
3607.64,229.623
3608.75,252.933
3609.85,259.067
3610.95,276.243
3612.05,259.067
3613.16,282.377
3614.26,270.109
3615.36,270.109
3616.46,282.377
3617.56,263.974
3618.67,211.22
3619.77,263.974
3620.87,282.377
3621.97,282.377
3623.08,304.46
3624.18,263.974
3625.28,282.377
3626.38,252.933
3627.48,229.623
3628.59,246.799
3629.69,277.47
3630.79,217.355
3631.89,260.294
3633,246.799
3634.1,260.294
3635.2,259.067
3636.3,259.067
3637.4,249.252
3638.51,229.623
3639.61,246.799
3640.71,240.665
3641.81,252.933
3642.92,252.933
3644.02,205.086
3645.12,249.252
3646.22,260.294
3647.32,259.067
3648.43,240.665
3649.53,260.294
3650.63,246.799
3651.73,223.489
3652.84,246.799
3653.94,252.933
3655.04,270.109
3656.14,263.974
3657.24,259.067
3658.35,259.067
3659.45,260.294
3660.55,270.109
3661.65,259.067
3662.76,259.067
3663.86,252.933
3664.96,277.47
3666.06,263.974
3667.16,259.067
3668.27,272.562
3669.37,270.109
3670.47,263.974
3671.57,272.562
3672.68,277.47
3673.78,270.109
3674.88,259.067
3675.98,277.47
3677.08,259.067
3678.19,259.067
3679.29,266.428
3680.39,263.974
3681.49,246.799
3682.6,246.799
3683.7,232.077
3684.8,259.067
3685.9,266.428
3687,259.067
3688.11,240.665
3689.21,277.47
3690.31,260.294
3691.41,282.377
3692.52,240.665
3693.62,263.974
3694.72,252.933
3695.82,283.604
3696.92,270.109
3698.03,270.109
3699.13,276.243
3700.23,240.665
3701.33,270.109
3702.44,288.511
3703.54,196.498
3704.64,180.55
3705.74,165.827
3706.84,173.188
3707.95,165.827
3709.05,180.55
3710.15,173.188
3711.25,141.291
3712.36,157.24
3713.46,165.827
3714.56,149.879
3715.66,157.24
3716.76,149.879
3717.87,165.827
3718.97,165.827
3720.07,141.291
3721.17,157.24
3722.28,157.24
3723.38,126.569
3724.48,149.879
3725.58,149.879
3726.68,173.188
3727.79,165.827
3728.89,133.93
3729.99,149.879
3731.09,165.827
3732.2,149.879
3733.3,149.879
3734.4,157.24
3735.5,165.827
3736.6,149.879
3737.71,149.879
3738.81,149.879
3739.91,102.032
3741.01,165.827
3742.12,141.291
3743.22,141.291
3744.32,165.827
3745.42,149.879
3746.52,141.291
3747.63,126.569
3748.73,180.55
3749.83,173.188
3750.93,165.827
3752.04,149.879
3753.14,157.24
3754.24,165.827
3755.34,157.24
3756.44,165.827
3757.55,165.827
3758.65,165.827
3759.75,165.827
3760.85,180.55
3761.96,165.827
3763.06,149.879
3764.16,173.188
3765.26,187.911
3766.36,173.188
3767.47,180.55
3768.57,180.55
3769.67,165.827
3770.77,165.827
3771.88,173.188
3772.98,173.188
3774.08,133.93
3775.18,165.827
3776.28,180.55
3777.39,165.827
3778.49,157.24
3779.59,165.827
3780.69,173.188
3781.8,173.188
3782.9,187.911
3784,180.55
3785.1,157.24
3786.2,149.879
3787.31,141.291
3788.41,157.24
3789.51,157.24
3790.61,173.188
3791.72,187.911
3792.82,173.188
3793.92,165.827
3795.02,157.24
3796.12,165.827
3797.23,173.188
3798.33,149.879
3799.43,157.24
3800.53,180.55
3801.64,180.55
3802.74,173.188
3803.84,187.911
3804.94,180.55
3806.04,165.827
3807.15,180.55
3808.25,180.55
3809.35,173.188
3810.45,173.188
3811.56,149.879
3812.66,165.827
3813.76,180.55
3814.86,195.272
3815.96,187.911
3817.07,165.827
3818.17,173.188
3819.27,157.24
3820.37,173.188
3821.48,187.911
3822.58,173.188
3823.68,149.879
3824.78,180.55
3825.88,180.55
3826.99,180.55
3828.09,180.55
3829.19,165.827
3830.29,133.93
3831.4,149.879
3832.5,187.911
3833.6,165.827
3834.7,165.827
3835.8,133.93
3836.91,173.188
3838.01,157.24
3839.11,202.633
3840.21,187.911
3841.32,187.911
3842.42,187.911
3843.52,187.911
3844.62,180.55
3845.72,187.911
3846.83,195.272
3847.93,187.911
3849.03,187.911
3850.13,187.911
3851.24,173.188
3852.34,149.879
3853.44,187.911
3854.54,180.55
3855.64,195.272
3856.75,157.24
3857.85,149.879
3858.95,165.827
3860.05,195.272
3861.16,187.911
3862.26,195.272
3863.36,195.272
3864.46,173.188
3865.56,173.188
3866.67,157.24
3867.77,165.827
3868.87,187.911
3869.97,195.272
3871.08,195.272
3872.18,209.994
3873.28,187.911
3874.38,217.355
3875.48,187.911
3876.59,149.879
3877.69,173.188
3878.79,173.188
3879.89,180.55
3881,173.188
3882.1,173.188
3883.2,165.827
3884.3,180.55
3885.4,180.55
3886.51,173.188
3887.61,195.272
3888.71,202.633
3889.81,195.272
3890.92,202.633
3892.02,202.633
3893.12,224.716
3894.22,187.911
3895.32,187.911
3896.43,195.272
3897.53,187.911
3898.63,187.911
3899.73,173.188
3900.84,180.55
3901.94,180.55
3903.04,195.272
3904.14,217.355
3905.24,195.272
3906.35,217.355
3907.45,217.355
3908.55,209.994
3909.65,202.633
3910.76,195.272
3911.86,149.879
3912.96,187.911
3914.06,187.911
3915.16,209.994
3916.27,180.55
3917.37,187.911
3918.47,173.188
3919.57,195.272
3920.68,217.355
3921.78,202.633
3922.88,209.994
3923.98,202.633
3925.08,195.272
3926.19,195.272
3927.29,187.911
3928.39,195.272
3929.49,202.633
3930.6,202.633
3931.7,173.188
3932.8,195.272
3933.9,224.716
3935,232.077
3936.11,209.994
3937.21,209.994
3938.31,224.716
3939.41,202.633
3940.52,224.716
3941.62,202.633
3942.72,209.994
3943.82,173.188
3944.92,180.55
3946.03,195.272
3947.13,165.827
3948.23,165.827
3949.33,187.911
3950.44,180.55
3951.54,195.272
3952.64,173.188
3953.74,173.188
3954.84,173.188
3955.95,173.188
3957.05,165.827
3958.15,187.911
3959.25,187.911
3960.36,180.55
3961.46,180.55
3962.56,180.55
3963.66,187.911
3964.76,217.355
3965.87,209.994
3966.97,330.224
3968.07,370.709
3969.17,370.709
3970.28,385.431
3971.38,389.112
3972.48,389.112
3973.58,401.38
3974.68,411.195
3975.79,411.195
3976.89,411.195
3977.99,411.195
3979.09,411.195
3980.2,417.329
3981.3,417.329
3982.4,414.875
3983.5,421.01
3984.6,427.144
3985.71,423.463
3986.81,429.597
3987.91,435.732
3989.01,435.732
3990.12,435.732
3991.22,429.597
3992.32,433.278
3993.42,429.597
3994.52,433.278
3995.63,433.278
3996.73,439.412
3997.83,441.866
3998.93,441.866
4000.04,441.866
4001.14,441.866
4002.24,441.866
4003.34,445.546
4004.44,445.546
4005.55,448
4006.65,448
4007.75,445.546
4008.85,441.866
4009.96,441.866
4011.06,435.732
4012.16,435.732
4013.26,427.144
4014.36,427.144
4015.47,433.278
4016.57,429.597
4017.67,417.329
4018.77,421.01
4019.88,423.463
4020.98,427.144
4022.08,433.278
4023.18,433.278
4024.28,435.732
4025.39,433.278
4026.49,427.144
4027.59,427.144
4028.69,423.463
4029.8,429.597
4030.9,427.144
"/>
</svg>
